<svg width="33" height="33" viewBox="0 0 33 33" fill="none" xmlns="http://www.w3.org/2000/svg">
<g clip-path="url(#clip0_302_14)">
<path d="M24.5815 12.5765C25.2964 14.1293 25.5543 15.8535 25.3249 17.5476C25.0956 19.2416 24.3885 20.8352 23.2865 22.142C22.1845 23.4489 20.7331 24.4148 19.1022 24.9269C17.4712 25.4389 15.7281 25.4759 14.0769 25.0335C12.4257 24.591 10.9347 23.6875 9.77822 22.4285C8.62179 21.1696 7.84781 19.6074 7.54686 17.9246C7.2459 16.2419 7.43042 14.5082 8.07881 12.9265C8.7272 11.3448 9.81265 9.9804 11.2081 8.99307C11.0192 10.659 11.4345 12.3374 12.3785 13.723C13.3224 15.1087 14.7323 16.1094 16.3518 16.5434C17.9713 16.9773 19.6927 16.8156 21.203 16.0876C22.7134 15.3596 23.9122 14.1137 24.5815 12.5765Z" stroke="white" stroke-width="2" stroke-linecap="round" stroke-linejoin="round"/>
</g>
<defs>
<clipPath id="clip0_302_14">
<rect width="24" height="24" fill="white" transform="translate(0 12) rotate(-30)"/>
</clipPath>
</defs>
</svg>
